<svg width="140" height="52" viewBox="0 0 140 52" fill="none" xmlns="http://www.w3.org/2000/svg">
<path d="M77.6797 42.7461C77.6797 41.7552 78.4724 41.5571 78.8687 41.5571C79.2651 41.5571 80.0578 41.7552 80.0578 42.7461V43.1425C80.4541 42.1516 81.445 41.3589 83.0304 41.3589C84.4176 41.3589 85.4085 42.1516 86.003 43.1425C86.5975 41.9534 87.7866 41.3589 89.1738 41.3589C91.5519 41.3589 92.7409 43.3406 92.7409 45.1242V49.8804C92.7409 51.0694 91.9482 51.2676 91.5519 51.2676C91.1555 51.2676 90.3628 51.0694 90.3628 49.8804V45.7187C90.3628 44.5297 90.1647 43.1425 88.5793 43.1425C87.192 43.1425 86.3993 44.5297 86.3993 45.7187V49.6822C86.3993 50.8712 85.6066 51.0694 85.2103 51.0694C84.814 51.0694 84.0213 50.8712 84.0213 49.6822V45.1242C84.0213 43.9351 83.4267 43.1425 82.2377 43.1425C80.8505 43.1425 80.2559 44.5297 80.2559 45.7187V49.6822C80.2559 50.8712 79.4633 51.0694 79.0669 51.0694C78.6706 51.0694 77.8779 50.8712 77.8779 49.6822V42.7461H77.6797Z" fill="#CF4D12"/>
<path d="M102.256 51.4651C101.86 51.4651 101.067 51.2669 101.067 50.2761V50.0779C99.6799 52.2578 94.5273 52.0596 94.5273 48.4925C94.5273 45.7181 98.0945 45.3217 101.067 45.3217V45.1235C101.067 43.9345 100.076 43.34 98.8872 43.34C98.0945 43.34 97.5 43.7363 96.9054 44.1327C95.7164 44.9254 94.7255 43.34 95.9146 42.5473C96.7073 41.9527 97.8963 41.5564 99.0853 41.5564C102.454 41.5564 103.247 43.7363 103.247 45.5199V50.2761C103.247 51.2669 102.652 51.4651 102.256 51.4651ZM100.473 46.9071C98.8872 46.9071 96.9054 47.1053 96.9054 48.4925C96.9054 49.4834 97.6981 49.6815 98.4908 49.6815C100.076 49.6815 101.067 48.6907 101.067 47.3034V46.9071H100.473Z" fill="#CF4D12"/>
<path d="M107.209 51.4651C106.812 51.4651 106.02 51.2669 106.02 50.0779V42.9436C106.02 41.9527 106.812 41.7546 107.209 41.7546C107.605 41.7546 108.398 41.9527 108.398 42.9436V43.34C108.794 42.3491 109.785 41.5564 110.776 41.5564C111.568 41.5564 111.965 41.9527 111.965 42.5473C111.965 43.1418 111.568 43.7363 110.776 43.7363C109.19 43.7363 108.398 44.9254 108.398 46.5107V50.2761C108.398 51.2669 107.605 51.4651 107.209 51.4651Z" fill="#CF4D12"/>
<path d="M122.067 50.2759C122.067 50.8704 121.671 51.465 120.878 51.465C120.482 51.465 120.086 51.2668 119.689 50.8704L115.726 46.5106V50.2759C115.726 51.465 114.933 51.6631 114.537 51.6631C114.14 51.6631 113.348 51.465 113.348 50.2759V37.5928C113.348 36.4037 114.14 36.2056 114.537 36.2056C114.933 36.2056 115.726 36.4037 115.726 37.5928V45.9161L119.491 42.1508C120.878 40.7636 122.464 42.5471 121.076 43.7362L118.302 46.1143L121.473 49.4832C122.067 49.6814 122.067 50.0778 122.067 50.2759Z" fill="#CF4D12"/>
<path d="M125.439 47.3041C125.637 48.6913 126.826 49.6822 128.213 49.6822C129.204 49.6822 129.798 49.2858 130.393 48.8895C130.789 48.6913 130.988 48.4932 131.186 48.4932C132.177 48.4932 132.375 49.6822 131.78 50.2767C130.789 51.0694 129.798 51.4658 128.213 51.4658C125.24 51.4658 123.061 49.6822 123.061 46.5114C123.061 43.5388 125.24 41.3589 128.015 41.3589C130.393 41.3589 132.177 42.7461 132.573 45.5205C132.573 45.7187 132.573 45.9169 132.573 45.9169C132.573 46.7096 132.177 47.1059 131.384 47.1059H125.439V47.3041ZM130.195 45.5205C130.195 42.1516 125.637 42.7461 125.439 45.5205H130.195Z" fill="#CF4D12"/>
<path d="M138.123 51.4649C135.547 51.4649 135.151 49.8796 135.151 48.096V43.7362H134.358C133.367 43.7362 133.367 43.1416 133.367 42.7453C133.367 42.3489 133.565 41.7544 134.358 41.7544H135.151V40.169C135.151 39.1782 135.943 38.98 136.34 38.98C136.736 38.98 137.529 39.1782 137.529 40.169V41.7544H138.916C139.907 41.7544 139.907 42.3489 139.907 42.7453C139.907 43.1416 139.709 43.7362 138.916 43.7362H137.529V48.096C137.529 49.0869 137.925 49.4832 138.52 49.4832C138.718 49.4832 138.916 49.4832 139.114 49.4832C140.105 49.4832 140.303 50.8704 139.511 51.2668C139.114 51.2668 138.718 51.4649 138.123 51.4649Z" fill="#CF4D12"/>
<path d="M44.7853 27.0901C43.3981 29.0719 41.8127 29.8646 39.4346 29.8646C35.0748 29.8646 31.1113 26.2974 31.1113 20.3522C31.1113 14.407 34.8766 10.8398 39.4346 10.8398C41.6146 10.8398 43.3981 11.6325 44.5872 13.4161V11.4344H50.5324V29.4682H44.7853V27.0901ZM44.7853 20.3522C44.7853 15.0015 37.2547 15.0015 37.2547 20.3522C37.2547 22.7303 38.8401 24.5139 41.02 24.5139C43.1999 24.5139 44.7853 22.7303 44.7853 20.3522Z" fill="#CF4D12"/>
<path d="M54.499 11.4341H60.246V14.6049H60.4442C61.435 12.425 63.4168 11.4341 65.7949 11.4341V16.983C62.2277 16.983 60.246 18.172 60.246 22.5318V29.2697H54.3008L54.499 11.4341Z" fill="#CF4D12"/>
<path d="M91.756 27.0901C90.3688 29.0719 88.7834 29.8646 86.4053 29.8646C82.0455 29.8646 78.082 26.2974 78.082 20.3522C78.082 14.407 81.8473 10.8398 86.4053 10.8398C88.5853 10.8398 90.3688 11.6325 91.5579 13.4161V11.4344H97.5031V29.4682H91.756V27.0901ZM91.5579 20.3522C91.5579 15.0015 84.0273 15.0015 84.0273 20.3522C84.0273 22.7303 85.6126 24.5139 87.7926 24.5139C89.9725 24.5139 91.5579 22.7303 91.5579 20.3522Z" fill="#CF4D12"/>
<path d="M101.266 11.4353C101.266 11.4353 101.464 11.4353 101.266 11.4353H107.211V13.417H107.409C108.4 11.8316 109.787 11.039 111.769 11.039C115.931 10.6426 119.498 14.2097 119.498 18.3714V29.4691H113.552V20.5513C113.552 18.1732 112.76 16.3897 110.58 16.3897C108.598 16.3897 107.409 17.975 107.409 20.9477V29.4691H101.464V11.4353H101.266Z" fill="#CF4D12"/>
<path d="M128.42 21.5419C128.222 21.5419 128.222 21.7401 128.42 21.5419C128.816 23.7218 130.005 24.7127 131.789 24.7127C133.176 24.7127 134.365 23.92 134.959 22.5328L139.517 24.3163C138.725 27.0908 135.752 29.667 131.392 29.667C125.645 29.667 122.078 25.9017 122.078 20.1547C122.078 14.6058 125.645 10.6423 131.194 10.6423C136.941 10.6423 139.914 14.6058 139.914 19.7583C139.914 20.3529 139.914 20.9474 139.716 21.3437H128.42V21.5419ZM128.222 18.3711H133.969C133.969 16.7857 132.78 15.5967 131.194 15.5967C129.807 15.7949 128.618 16.7857 128.222 18.3711Z" fill="#CF4D12"/>
<path d="M69.166 6.87635C69.166 5.09278 70.5532 3.70557 72.3368 3.70557C74.1204 3.70557 75.5076 5.09278 75.5076 6.87635C75.5076 8.65992 74.1204 10.0471 72.3368 10.0471C70.5532 10.0471 69.166 8.65992 69.166 6.87635Z" fill="#CF4D12"/>
<path d="M69.1601 29.4679C69.1601 30.657 69.1601 32.2424 66.9802 32.2424H66.1875V36.2058H67.7729C74.3126 36.2058 75.3035 33.4314 75.3035 29.2697V11.4341H69.3583V29.4679H69.1601Z" fill="#CF4D12"/>
<path d="M21.0051 7.07483C21.0051 10.8401 18.0325 13.8128 14.2672 13.8128C10.5019 13.8128 7.5293 10.8401 7.5293 7.07483C7.5293 3.30953 10.7001 0.336914 14.2672 0.336914C18.0325 0.336914 21.0051 3.30953 21.0051 7.07483Z" fill="#CF4D12"/>
<path d="M22.79 10.8398C22.79 10.8398 22.79 11.038 22.79 10.8398C21.2046 14.2088 18.0338 16.3887 14.2685 16.3887C10.7014 16.3887 7.53061 14.407 5.94522 11.4344H0V29.4682H5.94522V20.5504C5.94522 19.1632 6.73792 17.9741 8.12514 17.7759C9.9087 17.5778 11.0977 18.7668 11.0977 20.3522V29.4682H17.2411V20.5504C17.2411 19.1632 18.0338 17.9741 19.4211 17.7759C21.0065 17.5778 22.3937 18.7668 22.3937 20.3522V29.4682H28.3389V18.1723C28.7352 14.0106 26.5553 11.2362 22.79 10.8398Z" fill="#CF4D12"/>
</svg>
