<svg id="Calque_1" data-name="Calque 1" xmlns="http://www.w3.org/2000/svg" xmlns:xlink="http://www.w3.org/1999/xlink" viewBox="0 0 54.23 54.23"><defs><style>.cls-1{fill:url(#Degradado_sin_nombre_2);}</style><linearGradient id="Degradado_sin_nombre_2" x1="5.21" y1="45.77" x2="72.48" y2="-11.51" gradientUnits="userSpaceOnUse"><stop offset="0" stop-color="#ffe088"/><stop offset="0.21" stop-color="#fab744"/><stop offset="0.38" stop-color="#ea5578"/><stop offset="0.52" stop-color="#e93e8f"/><stop offset="0.74" stop-color="#7c4997"/><stop offset="1" stop-color="#4f53a0"/></linearGradient></defs><path class="cls-1" d="M27.11,54.23A27.12,27.12,0,1,1,54.23,27.11,27.14,27.14,0,0,1,27.11,54.23Zm0-51.65A24.54,24.54,0,1,0,51.65,27.11,24.55,24.55,0,0,0,27.11,2.58Zm9.15,13.53a2,2,0,1,0,2,2A2,2,0,0,0,36.26,16.11Zm-8.92,2.58a8.43,8.43,0,1,0,8.43,8.42A8.44,8.44,0,0,0,27.34,18.69Zm0,13.82a5.4,5.4,0,1,1,5.4-5.4A5.4,5.4,0,0,1,27.34,32.51Zm17-12.4A10.28,10.28,0,0,0,34.06,9.83H20.5A10.28,10.28,0,0,0,10.22,20.11V33.68A10.28,10.28,0,0,0,20.5,44H34.06A10.28,10.28,0,0,0,44.34,33.68ZM41.12,33.68a7.06,7.06,0,0,1-7.06,7.06H20.5a7.07,7.07,0,0,1-7.07-7.06V20.11a7.07,7.07,0,0,1,7.07-7.06H34.06a7.06,7.06,0,0,1,7.06,7.06Z"/></svg>