<svg xmlns="http://www.w3.org/2000/svg" width="48.704" height="48.704" viewBox="0 0 48.704 48.704">
  <g id="Groupe_156286" data-name="Groupe 156286" transform="translate(-10842.75 -3756.699)">
    <g id="Groupe_156285" data-name="Groupe 156285" transform="translate(10821.485 3736.744)">
      <circle id="Ellipse_9629" data-name="Ellipse 9629" cx="23.102" cy="23.102" r="23.102" transform="translate(22.515 21.205)" fill="none" stroke="red" stroke-miterlimit="10" stroke-width="2.5"/>
      <path id="Tracé_72466" data-name="Tracé 72466" d="M66.8,50.27A6.27,6.27,0,0,0,60.53,44H44.27A6.27,6.27,0,0,0,38,50.27V57.89a6.27,6.27,0,0,0,6.27,6.27H60.53a6.27,6.27,0,0,0,6.27-6.27ZM56.54,54.464l-6.485,3.557c-.282.152-.536-.052-.536-.373v-7.3c0-.324.262-.528.543-.367l6.53,3.744A.425.425,0,0,1,56.54,54.464Z" transform="translate(-6.566 -9.665)" fill="red"/>
      <path id="Tracé_72467" data-name="Tracé 72467" d="M56.54,54.464l-6.485,3.557c-.282.152-.536-.052-.536-.373v-7.3c0-.324.262-.528.543-.367l6.53,3.744A.425.425,0,0,1,56.54,54.464Z" transform="translate(-6.565 -9.665)" fill="#fff"/>
    </g>
  </g>
</svg>
