<svg width="1em" height="1em" viewBox="0 0 30 31" fill="none" xmlns="http://www.w3.org/2000/svg"><circle cx="15" cy="15.5" r="11" stroke="currentColor" stroke-width="2"></circle><path d="M11.196 9.56c1.176 0 2.124.948 2.124 2.136a2.12 2.12 0 01-2.124 2.124 2.123 2.123 0 01-2.136-2.124c0-1.188.948-2.136 2.136-2.136zm7.668 11.94a2.13 2.13 0 01-2.124-2.136 2.12 2.12 0 012.124-2.124A2.13 2.13 0 0121 19.364a2.14 2.14 0 01-2.136 2.136zm-8.064.036l-1.8-1.8L19.236 9.5l1.8 1.8L10.8 21.536z" fill="currentColor"></path></svg>