<svg width="1em" height="1em" viewBox="0 0 31 31" fill="none" xmlns="http://www.w3.org/2000/svg"><path d="M2.25 7.188c0-1.213.933-2.125 2-2.125h21c1.065 0 2 .912 2 2.125v15.625c0 1.21-.936 2.125-2 2.125h-21c-1.066 0-2-.915-2-2.125V7.188z" stroke="currentColor" stroke-width="2"></path><path d="M9 17.583v3.743c0 .146.021.172.156.172.763 0 1.526-.001 2.289.002.104 0 .136-.041.136-.143-.002-.426 0-.853 0-1.28-.002-.81-.008-1.619-.003-2.43 0-.158.02-.326.073-.473a.993.993 0 01.36-.474.965.965 0 01.646-.187c.168.012.34.047.486.151.188.133.346.297.402.529.043.174.053.36.054.54.004 1.145.002 2.289.002 3.433 0 .055.003.11.008.166.015.154.025.165.175.165h2.268c.19 0 .194-.006.194-.206v-3.334c0-.133-.002-.265 0-.398.008-.341.133-.626.399-.832a1 1 0 01.427-.192c.316-.064.589.01.835.208.277.224.375.536.375.89v3.687c0 .157.016.177.16.177h2.268c.129 0 .14-.014.14-.157 0-1.093.009-2.186-.002-3.279-.007-.708.057-1.42-.05-2.125a3.272 3.272 0 00-.131-.606 3.788 3.788 0 00-.301-.643 2.126 2.126 0 00-.964-.888c-.245-.11-.507-.187-.765-.267-.182-.057-.25-.013-.318.171a.188.188 0 01-.01.03c-.174.288-.34.58-.567.828a3.92 3.92 0 01-.88.743c-.275.166-.57.296-.875.388-.283.083-.566.14-.858.147a6.547 6.547 0 01-.53-.003 2.267 2.267 0 01-.45-.06c-.208-.056-.412-.134-.616-.208a3.382 3.382 0 01-.911-.53 3.658 3.658 0 01-1.012-1.232c-.045-.089-.104-.119-.2-.118-.75.004-1.499.003-2.248.003-.148 0-.161.013-.161.17L9 17.584zm8.701-5.69c.005-1.714-1.373-2.9-2.78-2.893-1.541.008-2.946 1.406-2.741 3.246.148 1.334 1.297 2.613 2.915 2.525 1.486-.081 2.627-1.412 2.606-2.878z" fill="currentColor"></path></svg>