<svg width="1em" height="1em" viewBox="0 0 16 16" fill="none" xmlns="http://www.w3.org/2000/svg"><g clip-path="url(#holding-empty_svg__clip0_1872_2060)"><path d="M15.542 6.958A1.042 1.042 0 0014.5 5.917h-3.125V1.75A1.041 1.041 0 0010.334.708H2A1.042 1.042 0 00.96 1.75v13.542h14.583V6.958z" fill="#67666B"></path><path d="M10.334 1.75H2v12.5h8.334V1.75zM14.5 6.958h-3.125v7.292H14.5V6.958z" fill="#fff"></path><path d="M4.084 3.833h1.041v2.084H4.084V3.833zm0 3.125h1.041v2.084H4.084V6.958zm3.125-3.125H8.25v2.084H7.21V3.833zm0 3.125H8.25v2.084H7.21V6.958zm-3.125 3.125h1.041v2.084H4.084v-2.084zm3.125 0H8.25v2.084H7.21v-2.084z" fill="#67666B"></path></g><defs><clipPath id="holding-empty_svg__clip0_1872_2060"><path fill="#fff" transform="translate(.75 .5)" d="M0 0h15v15H0z"></path></clipPath></defs></svg>