<svg width="1em" height="1em" viewBox="0 0 20 18" fill="none" xmlns="http://www.w3.org/2000/svg"><path d="M0 3a3 3 0 013-3h1.5a1 1 0 010 2H3a1 1 0 00-1 1v1.5a1 1 0 01-2 0V3zm14.5-2a1 1 0 011-1H17a3 3 0 013 3v1.5a1 1 0 01-2 0V3a1 1 0 00-1-1h-1.5a1 1 0 01-1-1zM1 12.5a1 1 0 011 1V15a1 1 0 001 1h1.5a1 1 0 010 2H3a3 3 0 01-3-3v-1.5a1 1 0 011-1zm18 0a1 1 0 011 1V15a3 3 0 01-3 3h-1.5a1 1 0 010-2H17a1 1 0 001-1v-1.5a1 1 0 011-1zM4 3.75a1 1 0 011 1v8.5a1 1 0 11-2 0v-8.5a1 1 0 011-1zm5 1a1 1 0 00-2 0v8.5a1 1 0 102 0v-8.5zm3-1a1 1 0 011 1v8.5a1 1 0 01-2 0v-8.5a1 1 0 011-1zm5 1a1 1 0 00-2 0v8.5a1 1 0 002 0v-8.5z" fill="currentColor"></path></svg>